<svg width="20" height="20" viewBox="0 0 20 20" fill="none" xmlns="http://www.w3.org/2000/svg">
<path fill-rule="evenodd" clip-rule="evenodd" d="M7.86163 15.9797C8.24101 15.7192 8.75978 15.8155 9.02034 16.1949C9.1158 16.3339 9.24638 16.4436 9.39777 16.5131C9.40875 16.5182 9.41963 16.5235 9.43039 16.529C9.69285 16.6636 9.99347 16.7009 10.28 16.6348C10.5666 16.5686 10.8221 16.4029 11.0011 16.1653C11.278 15.7977 11.8005 15.7241 12.1681 16.001C12.5358 16.278 12.6093 16.8005 12.3324 17.1681C11.9184 17.7175 11.3248 18.1041 10.6547 18.2587C9.99037 18.412 9.294 18.3274 8.68571 18.0201C8.26697 17.8242 7.90833 17.5197 7.64648 17.1384C7.38593 16.7591 7.48225 16.2403 7.86163 15.9797Z" fill="#515151"/>
<path fill-rule="evenodd" clip-rule="evenodd" d="M10 3.33329C8.89493 3.33329 7.83512 3.77228 7.05372 4.55368C6.27232 5.33508 5.83333 6.39489 5.83333 7.49996V8.13329C5.83256 9.01705 5.48085 9.86506 4.85556 10.4896L4.55592 10.7892C4.30744 11.0373 4.16715 11.3743 4.16667 11.7255V12.0083C4.16667 12.3597 4.30626 12.6967 4.55475 12.9452C4.80324 13.1937 5.14025 13.3333 5.49167 13.3333H14.5083C14.8597 13.3333 15.1968 13.1937 15.4453 12.9452C15.6907 12.6997 15.8299 12.3679 15.8333 12.0211C15.8219 11.739 15.7201 11.4679 15.5428 11.2479L15.5314 11.2334L14.8944 10.4061C14.4251 9.8179 14.1685 9.08806 14.1667 8.33533L14.1667 8.33329V7.49996C14.1667 6.39489 13.7277 5.33508 12.9463 4.55368C12.1649 3.77228 11.1051 3.33329 10 3.33329ZM5.87521 3.37517C6.96917 2.28121 8.4529 1.66663 10 1.66663C11.5471 1.66663 13.0308 2.28121 14.1248 3.37517C15.2188 4.46913 15.8333 5.95286 15.8333 7.49996V8.33213C15.8345 8.70967 15.9637 9.07565 16.2 9.37014L16.2103 9.38321L16.8468 10.2098C17.2507 10.7144 17.4798 11.3366 17.4996 11.9828C17.4999 11.9913 17.5 11.9998 17.5 12.0083C17.5 12.8017 17.1848 13.5627 16.6238 14.1237C16.0627 14.6848 15.3018 15 14.5083 15H5.49167C4.69823 15 3.93729 14.6848 3.37624 14.1237C2.81519 13.5627 2.5 12.8017 2.5 12.0083L2.5 11.7241C2.50086 10.931 2.8166 10.1707 3.37782 9.61029C3.37781 9.6103 3.37784 9.61028 3.37782 9.61029L3.67741 9.3107C3.98999 8.99852 4.1662 8.57463 4.16667 8.13287V7.49996C4.16667 5.95286 4.78125 4.46913 5.87521 3.37517Z" fill="#515151"/>
</svg>
