<svg width="25" height="26" viewBox="0 0 25 26" fill="none" xmlns="http://www.w3.org/2000/svg">
<path fill-rule="evenodd" clip-rule="evenodd" d="M5.521 4.66671C4.77311 4.66671 4.16683 5.27299 4.16683 6.02087V8.51046C4.16683 9.25834 4.77311 9.86462 5.521 9.86462H8.01058C8.75846 9.86462 9.36475 9.25834 9.36475 8.51046V6.02087C9.36475 5.27299 8.75846 4.66671 8.01058 4.66671H5.521ZM2.0835 6.02087C2.0835 4.1224 3.62252 2.58337 5.521 2.58337H8.01058C9.90906 2.58337 11.4481 4.1224 11.4481 6.02087V8.51046C11.4481 10.4089 9.90906 11.948 8.01058 11.948H5.521C3.62252 11.948 2.0835 10.4089 2.0835 8.51046V6.02087Z" fill="#515151"/>
<path fill-rule="evenodd" clip-rule="evenodd" d="M17 4.66671C16.2521 4.66671 15.6458 5.27299 15.6458 6.02087V8.50004C15.6458 9.24793 16.2521 9.85421 17 9.85421H19.4792C20.2271 9.85421 20.8333 9.24793 20.8333 8.50004V6.02087C20.8333 5.27299 20.2271 4.66671 19.4792 4.66671H17ZM13.5625 6.02087C13.5625 4.1224 15.1015 2.58337 17 2.58337H19.4792C21.3776 2.58337 22.9167 4.1224 22.9167 6.02087V8.50004C22.9167 10.3985 21.3776 11.9375 19.4792 11.9375H17C15.1015 11.9375 13.5625 10.3985 13.5625 8.50004V6.02087Z" fill="#515151"/>
<path fill-rule="evenodd" clip-rule="evenodd" d="M5.521 16.1251C4.77311 16.1251 4.16683 16.7314 4.16683 17.4792V19.9792C4.16683 20.7271 4.77311 21.3334 5.521 21.3334H8.021C8.76888 21.3334 9.37516 20.7271 9.37516 19.9792V17.4792C9.37516 16.7314 8.76888 16.1251 8.021 16.1251H5.521ZM2.0835 17.4792C2.0835 15.5808 3.62252 14.0417 5.521 14.0417H8.021C9.91947 14.0417 11.4585 15.5808 11.4585 17.4792V19.9792C11.4585 21.8777 9.91947 23.4167 8.021 23.4167H5.521C3.62252 23.4167 2.0835 21.8777 2.0835 19.9792V17.4792Z" fill="#515151"/>
<path fill-rule="evenodd" clip-rule="evenodd" d="M16.9795 16.1146C16.2316 16.1146 15.6253 16.7209 15.6253 17.4688V19.9688C15.6253 20.7166 16.2316 21.3229 16.9795 21.3229H19.4795C20.2274 21.3229 20.8337 20.7166 20.8337 19.9688V17.4688C20.8337 16.7209 20.2274 16.1146 19.4795 16.1146H16.9795ZM13.542 17.4688C13.542 15.5703 15.081 14.0312 16.9795 14.0312H19.4795C21.378 14.0312 22.917 15.5703 22.917 17.4688V19.9688C22.917 21.8672 21.378 23.4063 19.4795 23.4063H16.9795C15.081 23.4063 13.542 21.8672 13.542 19.9688V17.4688Z" fill="#515151"/>
</svg>
