<svg width="24" height="24" viewBox="0 0 24 24" fill="none" xmlns="http://www.w3.org/2000/svg">
<path d="M3.01001 19V6C3.01001 4.93913 3.43144 3.92172 4.18158 3.17157C4.93173 2.42143 5.94914 2 7.01001 2H17.01C18.0709 2 19.0883 2.42143 19.8384 3.17157C20.5886 3.92172 21.01 4.93913 21.01 6V16" stroke="#515151" stroke-width="2" stroke-linecap="round" stroke-linejoin="round"/>
<path d="M21.01 22H6.01001C5.21436 22 4.4513 21.6839 3.88869 21.1213C3.32608 20.5587 3.01001 19.7956 3.01001 19C3.01001 18.2044 3.32608 17.4413 3.88869 16.8787C4.4513 16.3161 5.21436 16 6.01001 16H21.01" stroke="#515151" stroke-width="2" stroke-linecap="round" stroke-linejoin="round"/>
<path d="M21.01 22L20.84 21.75C20.3003 20.9342 20.0117 19.9781 20.01 19C20.0117 18.0219 20.3003 17.0658 20.84 16.25L21.01 16" stroke="#515151" stroke-width="2" stroke-linecap="round" stroke-linejoin="round"/>
<path d="M9.01001 7H15.01" stroke="#515151" stroke-width="2" stroke-linecap="round" stroke-linejoin="round"/>
<path d="M9.01001 11H13.01" stroke="#515151" stroke-width="2" stroke-linecap="round" stroke-linejoin="round"/>
</svg>
