<svg width="18" height="22" viewBox="0 0 18 22" fill="none" xmlns="http://www.w3.org/2000/svg">
<path d="M12.2498 3.41675H12.7915C13.2894 3.41675 13.7825 3.51482 14.2425 3.70537C14.7025 3.89592 15.1205 4.17521 15.4726 4.5273C15.8247 4.87939 16.104 5.29738 16.2945 5.75741C16.4851 6.21743 16.5832 6.71049 16.5832 7.20841V16.9584C16.5832 17.964 16.1837 18.9285 15.4726 19.6395C14.7615 20.3506 13.7971 20.7501 12.7915 20.7501H5.20817C4.20256 20.7501 3.23813 20.3506 2.52706 19.6395C1.81598 18.9285 1.4165 17.964 1.4165 16.9584V7.20841C1.4165 6.2028 1.81598 5.23838 2.52706 4.5273C3.23813 3.81623 4.20256 3.41675 5.20817 3.41675H5.69567" stroke="#303037" stroke-width="2" stroke-linecap="round" stroke-linejoin="round"/>
<path d="M6.83301 11H11.1663" stroke="#303037" stroke-width="2" stroke-linecap="round" stroke-linejoin="round"/>
<path d="M6.83301 15.3333H10.083" stroke="#303037" stroke-width="2" stroke-linecap="round" stroke-linejoin="round"/>
<path d="M10.0833 1.25H7.91667C6.72005 1.25 5.75 2.22005 5.75 3.41667C5.75 4.61328 6.72005 5.58333 7.91667 5.58333H10.0833C11.28 5.58333 12.25 4.61328 12.25 3.41667C12.25 2.22005 11.28 1.25 10.0833 1.25Z" stroke="#303037" stroke-width="2" stroke-linecap="round" stroke-linejoin="round"/>
</svg>
