<svg width="24" height="24" viewBox="0 0 24 24" fill="none" xmlns="http://www.w3.org/2000/svg">
<g clip-path="url(#clip0_271_3726)">
<path d="M11.6739 9.7303C11.3125 8.73713 11.1317 8.24054 11.116 7.79113C11.0843 6.88283 11.4893 6.01425 12.2055 5.45471C12.5599 5.17785 13.0565 4.99711 14.0496 4.63562C15.0428 4.27413 15.5394 4.09339 15.9888 4.0777C16.8971 4.04598 17.7657 4.45101 18.3252 5.16719C18.6021 5.52155 18.7828 6.01813 19.1443 7.01131L22.6402 16.6161C23.0017 17.6092 23.1824 18.1058 23.1981 18.5552C23.2298 19.4635 22.8248 20.3321 22.1086 20.8917C21.7542 21.1685 21.2577 21.3493 20.2645 21.7108C19.2713 22.0722 18.7747 22.253 18.3253 22.2687C17.417 22.3004 16.5484 21.8954 15.9889 21.1792C15.712 20.8248 15.5313 20.3282 15.1698 19.3351L11.6739 9.7303Z" stroke="#515151" stroke-width="2"/>
<path d="M15.6543 9.04199L15.6655 9.03792" stroke="#515151" stroke-width="2" stroke-linecap="round" stroke-linejoin="round"/>
<path d="M7 9.00391L7.01118 8.99984" stroke="#515151" stroke-width="2" stroke-linecap="round" stroke-linejoin="round"/>
<path d="M15.0264 18.9395L22.4967 16.2205" stroke="#515151" stroke-width="2" stroke-linecap="round" stroke-linejoin="round"/>
<path d="M3 7.9375C3 6.89053 3 6.36704 3.13984 5.94339C3.42246 5.08716 4.10441 4.41586 4.97424 4.13765C5.40462 4 5.93641 4 7 4C8.06359 4 8.59538 4 9.02576 4.13765C9.89559 4.41586 10.5775 5.08716 10.8602 5.94339C11 6.36704 11 6.89053 11 7.9375V18.0625C11 19.1095 11 19.633 10.8602 20.0566C10.5775 20.9128 9.89559 21.5841 9.02576 21.8623C8.59538 22 8.06359 22 7 22C5.93641 22 5.40462 22 4.97424 21.8623C4.10441 21.5841 3.42246 20.9128 3.13984 20.0566C3 19.633 3 19.1095 3 18.0625V7.9375Z" stroke="#515151" stroke-width="2"/>
<path d="M3 18H11" stroke="#515151" stroke-width="2" stroke-linecap="round" stroke-linejoin="round"/>
</g>
<defs>
<clipPath id="clip0_271_3726">
<rect width="24" height="24" fill="white"/>
</clipPath>
</defs>
</svg>
