<svg width="27" height="27" viewBox="0 0 27 27" fill="none" xmlns="http://www.w3.org/2000/svg">
<path d="M16.875 9C16.875 7.95453 16.875 7.43179 16.7885 6.99709C16.4335 5.21199 15.038 3.81655 13.2529 3.46147C12.8182 3.375 12.2955 3.375 11.25 3.375L10.125 3.375C8.02826 3.375 6.97989 3.375 6.15292 3.71754C5.0503 4.17426 4.17426 5.0503 3.71754 6.15292C3.375 6.97989 3.375 8.02826 3.375 10.125L3.375 16.875C3.375 18.9717 3.375 20.0201 3.71754 20.8471C4.17426 21.9497 5.0503 22.8257 6.15292 23.2825C6.97989 23.625 8.02826 23.625 10.125 23.625L11.25 23.625C12.2955 23.625 12.8182 23.625 13.2529 23.5385C15.038 23.1835 16.4335 21.788 16.7885 20.0029C16.875 19.5682 16.875 19.0455 16.875 18" stroke="#515151" stroke-width="1.5" stroke-linecap="round" stroke-linejoin="round"/>
<path d="M12.375 13.5L23.625 13.5" stroke="#515151" stroke-width="1.5" stroke-linecap="round" stroke-linejoin="round"/>
<path d="M20.25 10.125L23.625 13.5L20.25 16.875" stroke="#515151" stroke-width="1.5" stroke-linecap="round" stroke-linejoin="round"/>
</svg>
