<svg width="24" height="24" viewBox="0 0 24 24" fill="none" xmlns="http://www.w3.org/2000/svg">
<path d="M20.3043 8.69404L9.16797 19.8304C8.79634 20.2016 8.35522 20.496 7.8698 20.6966C7.38438 20.8973 6.86417 21.0004 6.3389 21H3.99967C3.73454 21 3.48027 20.8947 3.2928 20.7072C3.10532 20.5197 3 20.2655 3 20.0003V17.6611C2.99959 17.1358 3.10267 16.6156 3.30336 16.1302C3.50404 15.6448 3.7984 15.2037 4.16962 14.832L15.306 3.69569C15.7553 3.25005 16.3625 3 16.9954 3C17.6283 3 18.2355 3.25005 18.6848 3.69569L20.3043 5.31516C20.75 5.76451 21 6.37174 21 7.0046C21 7.63746 20.75 8.24469 20.3043 8.69404Z" stroke="white" stroke-width="2" stroke-linecap="round" stroke-linejoin="round"/>
<path d="M13.5 5.50586L18.5 10.5059" stroke="white" stroke-width="2" stroke-linecap="round" stroke-linejoin="round"/>
<path d="M21 21H13" stroke="white" stroke-width="2" stroke-linecap="round" stroke-linejoin="round"/>
</svg>
