<svg width="25" height="26" viewBox="0 0 25 26" fill="none" xmlns="http://www.w3.org/2000/svg">
<mask id="mask0_325_481" style="mask-type:luminance" maskUnits="userSpaceOnUse" x="0" y="0" width="25" height="26">
<path fill-rule="evenodd" clip-rule="evenodd" d="M0 0.5H25V25.5H0V0.5Z" fill="white"/>
</mask>
<g mask="url(#mask0_325_481)">
<path fill-rule="evenodd" clip-rule="evenodd" d="M6.74475 19.1285C7.04161 19.1285 7.33848 19.1635 7.62886 19.2359C8.50519 19.4555 9.26615 20.0008 9.71729 20.7332C10.0103 21.1929 10.1723 21.7298 10.1775 22.2775C10.1775 23.0617 10.8542 23.6903 11.6864 23.6903H13.3108C14.1392 23.6903 14.8158 23.0654 14.8197 22.2944C14.8146 21.4426 15.1723 20.633 15.827 20.0238C16.4726 19.4229 17.3749 19.0622 18.2771 19.0863C18.8683 19.0996 19.4373 19.248 19.939 19.5134C20.6611 19.8983 21.5828 19.669 22.0002 19.0055L22.861 17.6699C23.0529 17.3622 23.1086 16.9761 23.0062 16.6202C22.9051 16.2643 22.651 15.9554 22.3088 15.7732C21.5076 15.3437 20.9359 14.6512 20.6987 13.8211C20.4641 13.0067 20.5924 12.1175 21.05 11.3852C21.3482 10.9026 21.785 10.496 22.3088 10.2161C23.0114 9.83362 23.2577 8.97821 22.8494 8.31221C22.8325 8.28567 22.8169 8.25792 22.804 8.22897L22.0443 7.00316C21.6308 6.33355 20.7104 6.1031 19.9883 6.48557C19.2079 6.91508 18.2797 7.03815 17.3878 6.81977C16.4972 6.60501 15.7505 6.08018 15.2851 5.33939C14.987 4.87609 14.8249 4.33678 14.8197 3.78782C14.8314 3.3752 14.6758 3.0048 14.3932 2.73333C14.1119 2.46308 13.7165 2.30985 13.3108 2.30985H11.6864C11.2846 2.30985 10.9086 2.45584 10.6247 2.71886C10.3421 2.98308 10.1879 3.33417 10.1905 3.70819C10.1632 5.4721 8.61409 6.89216 6.73826 6.89216C6.13676 6.88613 5.55729 6.73531 5.0543 6.4554C4.34779 6.08139 3.42478 6.31183 3.01125 6.98144L2.13361 8.32428C1.73174 8.97338 1.97805 9.8312 2.69364 10.2185C3.75535 10.7904 4.41779 11.8569 4.41779 13.0007C4.41779 14.1445 3.75535 15.2098 2.69105 15.7829C1.97935 16.1666 1.73304 17.0196 2.14528 17.6831L2.96328 18.9958C3.16551 19.3348 3.49608 19.5798 3.87851 19.6799C4.25963 19.7788 4.67965 19.7366 5.02967 19.5556C5.54432 19.2745 6.14324 19.1285 6.74475 19.1285ZM13.3084 25.5H11.684C9.7797 25.5 8.23055 24.0594 8.23055 22.2871C8.22796 22.0687 8.16055 21.8419 8.0348 21.6452C7.83128 21.3146 7.502 21.0782 7.12217 20.984C6.74493 20.8899 6.33139 20.9418 5.99175 21.1252C5.17764 21.5475 4.21963 21.65 3.3433 21.4208C2.46826 21.1904 1.71249 20.6305 1.26913 19.8885L0.458911 18.5891C-0.488724 17.0593 0.0751904 15.0987 1.71637 14.2156C2.18177 13.9658 2.47085 13.5001 2.47085 13.0006C2.47085 12.5011 2.18177 12.0342 1.71637 11.7844C0.0738941 10.8965 -0.488724 8.93106 0.457615 7.40121L1.33654 6.05837C2.27121 4.54541 4.38427 4.01214 6.03194 4.89289C6.25621 5.01716 6.49992 5.07989 6.74752 5.08231C7.55515 5.08231 8.23055 4.46216 8.24352 3.69965C8.23833 2.85872 8.59483 2.05157 9.2443 1.44228C9.89637 0.834202 10.7623 0.5 11.684 0.5H13.3084C14.2366 0.5 15.1388 0.854713 15.7857 1.47124C16.4313 2.09138 16.7878 2.94197 16.7606 3.80462C16.7632 3.99887 16.8319 4.22328 16.9563 4.41994C17.1624 4.74569 17.4878 4.97493 17.8741 5.06904C18.2604 5.15832 18.6649 5.11006 19.0084 4.92064C20.6678 4.03868 22.7795 4.56713 23.7272 6.09939L24.5348 7.40121C24.5555 7.4362 24.5737 7.46998 24.5892 7.50497C25.4474 9.01431 24.8744 10.9146 23.2799 11.782C23.0479 11.9063 22.8599 12.08 22.7303 12.29C22.5293 12.6145 22.4736 13.0006 22.5747 13.3553C22.6784 13.7173 22.926 14.0177 23.2747 14.2035C24.0616 14.6246 24.6489 15.334 24.8835 16.1532C25.1182 16.9712 24.9898 17.8592 24.5322 18.5915L23.6714 19.9259C22.7238 21.4413 20.612 21.9661 18.9696 21.083C18.7505 20.966 18.4977 20.902 18.2462 20.896H18.2384C17.8638 20.896 17.4787 21.0444 17.1987 21.3038C16.9148 21.568 16.7593 21.9203 16.7619 22.2943C16.7528 24.0667 15.2036 25.5 13.3084 25.5Z" fill="#515151"/>
</g>
<path fill-rule="evenodd" clip-rule="evenodd" d="M12.5036 10.7242C11.1554 10.7242 10.0587 11.7461 10.0587 13.0008C10.0587 14.2556 11.1554 15.2751 12.5036 15.2751C13.8518 15.2751 14.9486 14.2556 14.9486 13.0008C14.9486 11.7461 13.8518 10.7242 12.5036 10.7242ZM12.5042 17.0848C10.0839 17.0848 8.11475 15.2533 8.11475 13.0007C8.11475 10.7482 10.0839 8.91431 12.5042 8.91431C14.9245 8.91431 16.8937 10.7482 16.8937 13.0007C16.8937 15.2533 14.9245 17.0848 12.5042 17.0848Z" fill="#515151"/>
</svg>
