<svg width="18" height="20" viewBox="0 0 18 20" fill="none" xmlns="http://www.w3.org/2000/svg">
<path fill-rule="evenodd" clip-rule="evenodd" d="M15.7402 7.33C15.6467 7.22641 15.5325 7.14353 15.4051 7.0867C15.2776 7.02986 15.1397 7.00033 15.0002 7H3.00016C2.86062 7.00033 2.72269 7.02986 2.59524 7.0867C2.4678 7.14353 2.35366 7.22641 2.26016 7.33C2.16712 7.43383 2.09681 7.55596 2.05376 7.68857C2.0107 7.82117 1.99586 7.96132 2.01016 8.1L2.67016 15.46C2.72463 15.9918 2.86301 16.5115 3.08016 17C3.46846 17.8897 4.10735 18.6471 4.91886 19.1799C5.73038 19.7126 6.67942 19.9976 7.65016 20H10.3502C11.5384 20.0181 12.6943 19.6124 13.6105 18.8556C14.5268 18.0987 15.1435 17.0403 15.3502 15.87L16.0002 8.09C16.0117 7.95223 15.9946 7.81356 15.9498 7.68275C15.9051 7.55194 15.8337 7.43183 15.7402 7.33ZM10.0001 11C10.0001 10.4477 9.55241 10 9.00012 10C8.44784 10 8.00012 10.4477 8.00012 11V14C8.00012 14.5523 8.44784 15 9.00012 15C9.55241 15 10.0001 14.5523 10.0001 14V11Z" fill="#DA454E"/>
<path d="M18 5.00011C18 5.26533 17.8946 5.51968 17.7071 5.70722C17.5196 5.89476 17.2652 6.00011 17 6.00011H1C0.734784 6.00011 0.48043 5.89476 0.292893 5.70722C0.105357 5.51968 0 5.26533 0 5.00011C0 4.7349 0.105357 4.48054 0.292893 4.29301C0.48043 4.10547 0.734784 4.00011 1 4.00011H3.62L3.68 3.51011C3.80017 2.53628 4.27409 1.6406 5.01161 0.993422C5.74914 0.346245 6.69881 -0.00727311 7.68 0.000113457H10.38C11.3612 -0.00727311 12.3109 0.346245 13.0484 0.993422C13.7859 1.6406 14.2598 2.53628 14.38 3.51011L14.44 4.00011H17C17.2652 4.00011 17.5196 4.10547 17.7071 4.29301C17.8946 4.48054 18 4.7349 18 5.00011Z" fill="#DA454E"/>
</svg>
