<svg width="22" height="23" viewBox="0 0 22 23" fill="none" xmlns="http://www.w3.org/2000/svg">
<path d="M18.0415 13.1249V7.70825" stroke="#515151" stroke-width="2" stroke-linecap="round" stroke-linejoin="round"/>
<path d="M15.3335 10.4167H20.7502" stroke="#515151" stroke-width="2" stroke-linecap="round" stroke-linejoin="round"/>
<path d="M7.75 21.2499C11.3399 21.2499 14.25 19.3098 14.25 16.9166C14.25 14.5234 11.3399 12.5833 7.75 12.5833C4.16015 12.5833 1.25 14.5234 1.25 16.9166C1.25 19.3098 4.16015 21.2499 7.75 21.2499Z" stroke="#515151" stroke-width="2" stroke-linecap="round" stroke-linejoin="round"/>
<path d="M7.75016 9.33333C9.84424 9.33333 11.5418 7.63575 11.5418 5.54167C11.5418 3.44759 9.84424 1.75 7.75016 1.75C5.65608 1.75 3.9585 3.44759 3.9585 5.54167C3.9585 7.63575 5.65608 9.33333 7.75016 9.33333Z" stroke="#515151" stroke-width="2" stroke-linecap="round" stroke-linejoin="round"/>
</svg>
